<svg height="512pt" viewBox="-2 0 512 512.00063" width="512pt" xmlns="http://www.w3.org/2000/svg"><path d="m352.902344 150.691406-159.554688-147.902344c-4.011718-3.71875-10.214844-3.71875-14.226562 0l-159.554688 147.902344c-6.976562 6.46875-2.402344 18.136719 7.113282 18.136719h319.113281c9.511719 0 14.085937-11.667969 7.109375-18.136719zm0 0" fill="#ff5c64"/><path d="m343.121094 141.625-149.773438-138.835938c-4.011718-3.71875-10.214844-3.71875-14.226562 0-5.027344 4.660157-11.261719 10.441407-13.550782 12.5625l116.660157 108.136719c6.976562 6.46875 2.402343 18.136719-7.113281 18.136719h-245.769532c-2.339844 2.167969-5.917968 5.484375-9.78125 9.066406-6.976562 6.464844-2.402344 18.136719 7.109375 18.136719h319.113281c9.515626 0 14.089844-11.667969 7.113282-18.136719zm0 0" fill="#ff2444"/><path d="m53.359375 168.828125v207.160156h64.867187v-87.886719c0-37.558593 30.449219-68.007812 68.007813-68.007812s68.007813 30.449219 68.007813 68.007812v87.886719h64.867187v-207.160156zm0 0" fill="#c6e3f7"/><path d="m53.359375 168.828125v19.878906h224.945313c11.554687 0 20.925781 9.367188 20.925781 20.925781v166.355469h19.878906v-207.160156zm0 0" fill="#aacee0"/><path d="m186.234375 375.988281v136.011719h-175.769531c-5.78125 0-10.464844-4.683594-10.464844-10.464844v-115.085937c0-5.777344 4.683594-10.464844 10.464844-10.464844h175.769531zm0 0" fill="#ffe266"/><path d="m160.078125 375.988281v89.976563c0 11.558594-9.367187 20.925781-20.925781 20.925781h-139.152344v14.648437c0 5.777344 4.683594 10.460938 10.464844 10.460938h175.769531v-136.011719zm0 0" fill="#fcd21d"/><path d="m186.234375 375.988281v136.011719h175.769531c5.78125 0 10.464844-4.683594 10.464844-10.464844v-115.085937c0-5.777344-4.683594-10.464844-10.464844-10.464844h-175.769531zm0 0" fill="#8ef26d"/><path d="m346.308594 375.988281v89.976563c0 11.558594-9.367188 20.925781-20.921875 20.925781h-139.152344v25.109375h175.769531c5.78125 0 10.464844-4.683594 10.464844-10.464844v-115.085937c0-5.777344-4.683594-10.464844-10.464844-10.464844h-15.695312zm0 0" fill="#72dd4b"/><path d="m380.351562 227.023438-55.628906 26.753906c-5.207031 2.507812-7.398437 8.757812-4.894531 13.964844l112.464844 233.832031c2.503906 5.207031 8.757812 7.394531 13.964843 4.890625l55.628907-26.753906c5.207031-2.503907 7.398437-8.757813 4.894531-13.964844l-112.46875-233.828125c-2.503906-5.210938-8.753906-7.398438-13.960938-4.894531zm0 0" fill="#ff94e6"/><path d="m380.351562 227.023438-14.398437 6.925781 98.253906 204.28125c5.007813 10.417969.628907 22.917969-9.785156 27.929687l-31.804687 15.292969 9.675781 20.121094c2.503906 5.207031 8.757812 7.394531 13.964843 4.890625l55.628907-26.753906c5.207031-2.503907 7.398437-8.757813 4.894531-13.964844l-112.46875-233.828125c-2.503906-5.210938-8.753906-7.398438-13.960938-4.894531zm0 0" fill="#ff71d0"/></svg>