<?xml version="1.0" encoding="iso-8859-1"?>
<!-- Generator: Adobe Illustrator 19.0.0, SVG Export Plug-In . SVG Version: 6.00 Build 0)  -->
<svg version="1.1" id="Capa_1" xmlns="http://www.w3.org/2000/svg" xmlns:xlink="http://www.w3.org/1999/xlink" x="0px" y="0px"
	 viewBox="0 0 512 512" style="enable-background:new 0 0 512 512;" xml:space="preserve">
<path style="fill:#FFEF9F;" d="M504,440H264V104h240c4.418,0,8,3.582,8,8v320C512,436.418,508.418,440,504,440z"/>
<g>
	<rect x="264" y="104" style="fill:#FFEA7E;" width="32" height="336"/>
	<path style="fill:#FFEA7E;" d="M264,104H8c-4.418,0-8,3.582-8,8v320c0,4.418,3.582,8,8,8h256V104z"/>
</g>
<path style="fill:#FFFADF;" d="M232,72H40c-4.418,0-8,3.582-8,8v320c0,4.418,3.582,8,8,8h192c17.673,0,32,14.327,32,32V104
	C264,86.327,249.673,72,232,72z"/>
<g>
	<path style="fill:#E36D45;" d="M228.215,208.002c-6.265-6.265-15.532-9.048-25.416-7.636c-9.182,1.312-18.236,6.032-25.496,13.292
		c-13.155,13.155-17.019,31.463-10.418,44.36l-68.777,68.777c-3.125,3.124-3.125,8.189,0,11.313
		c1.562,1.562,3.609,2.343,5.657,2.343s4.095-0.781,5.657-2.343l68.776-68.776c4.116,2.12,8.849,3.233,13.865,3.233
		c1.64,0,3.312-0.119,5-0.36c9.181-1.312,18.236-6.032,25.496-13.292c7.26-7.26,11.981-16.314,13.292-25.496
		C237.263,223.53,234.48,214.267,228.215,208.002z M220.012,231.155c-0.813,5.693-4.009,11.687-8.767,16.445
		s-10.752,7.954-16.445,8.767c-2.852,0.408-8.184,0.545-11.839-3.11c-6.133-6.133-3.542-19.086,5.656-28.285
		c4.758-4.758,10.752-7.953,16.445-8.767c0.776-0.111,1.735-0.202,2.794-0.202c2.834,0,6.384,0.651,9.045,3.312
		C220.557,222.971,220.419,228.302,220.012,231.155z"/>
	<path style="fill:#E36D45;" d="M205.421,330.108l-74.255-74.255c7.23-12.267,5.584-28.358-4.941-38.882l-22.627-22.627
		c-3.124-3.124-8.189-3.124-11.313,0c-3.125,3.124-3.125,8.189,0,11.313l16.971,16.971l-5.657,5.657l-16.97-16.97
		c-3.124-3.124-8.189-3.124-11.313,0c-3.125,3.124-3.125,8.189,0,11.313l16.97,16.97l-5.657,5.657l-16.971-16.971
		c-3.124-3.124-8.189-3.124-11.313,0c-3.125,3.124-3.125,8.189,0,11.313l22.627,22.627c6.238,6.238,14.433,9.358,22.627,9.358
		c5.63,0,11.259-1.473,16.254-4.417l74.255,74.255c1.562,1.562,3.609,2.343,5.657,2.343s4.095-0.781,5.657-2.343
		C208.546,338.297,208.546,333.232,205.421,330.108z M99.472,255.037l9.778-9.778c0.002-0.002,0.003-0.003,0.005-0.005
		s0.003-0.003,0.005-0.005l9.778-9.778c1.416,5.336,0.051,11.263-4.126,15.44C110.735,255.089,104.808,256.454,99.472,255.037z"/>
	<path style="fill:#E36D45;" d="M448,104h-64v87.768c0,2.362,0.928,4.68,2.707,6.234c2.798,2.444,6.774,2.626,9.73,0.654
		L416,185.615l19.563,13.042c2.641,1.761,6.191,1.78,8.84,0.023c2.311-1.533,3.598-4.264,3.598-7.005L448,104L448,104z"/>
</g>
<g>
	<path style="fill:#FFFADF;" d="M368.421,248H304c-4.418,0-8-3.582-8-8s3.582-8,8-8h64.421c4.418,0,8,3.582,8,8
		S372.839,248,368.421,248z"/>
	<path style="fill:#FFFADF;" d="M440,248h-42.947c-4.418,0-8-3.582-8-8s3.582-8,8-8H440c4.418,0,8,3.582,8,8S444.418,248,440,248z"
		/>
	<path style="fill:#FFFADF;" d="M424,288H304c-4.418,0-8-3.582-8-8s3.582-8,8-8h120c4.418,0,8,3.582,8,8S428.418,288,424,288z"/>
	<path style="fill:#FFFADF;" d="M339.79,328H304c-4.418,0-8-3.582-8-8s3.582-8,8-8h35.79c4.418,0,8,3.582,8,8
		S344.208,328,339.79,328z"/>
	<path style="fill:#FFFADF;" d="M440,328h-71.579c-4.418,0-8-3.582-8-8s3.582-8,8-8H440c4.418,0,8,3.582,8,8S444.418,328,440,328z"
		/>
	<path style="fill:#FFFADF;" d="M382.737,368H304c-4.418,0-8-3.582-8-8s3.582-8,8-8h78.737c4.418,0,8,3.582,8,8
		S387.155,368,382.737,368z"/>
	<path style="fill:#FFFADF;" d="M440,368h-28.631c-4.418,0-8-3.582-8-8s3.582-8,8-8H440c4.418,0,8,3.582,8,8S444.418,368,440,368z"
		/>
</g>
<g>
	<path style="fill:#FFD29A;" d="M200,136H88c-4.418,0-8-3.582-8-8s3.582-8,8-8h112c4.418,0,8,3.582,8,8S204.418,136,200,136z"/>
	<path style="fill:#FFD29A;" d="M128,168H88c-4.418,0-8-3.582-8-8s3.582-8,8-8h40c4.418,0,8,3.582,8,8S132.418,168,128,168z"/>
	<path style="fill:#FFD29A;" d="M200,168h-40c-4.418,0-8-3.582-8-8s3.582-8,8-8h40c4.418,0,8,3.582,8,8S204.418,168,200,168z"/>
</g>
<g>
</g>
<g>
</g>
<g>
</g>
<g>
</g>
<g>
</g>
<g>
</g>
<g>
</g>
<g>
</g>
<g>
</g>
<g>
</g>
<g>
</g>
<g>
</g>
<g>
</g>
<g>
</g>
<g>
</g>
</svg>
