<?xml version="1.0" encoding="iso-8859-1"?>
<!-- Generator: Adobe Illustrator 19.0.0, SVG Export Plug-In . SVG Version: 6.00 Build 0)  -->
<svg version="1.1" id="Layer_1" xmlns="http://www.w3.org/2000/svg" xmlns:xlink="http://www.w3.org/1999/xlink" x="0px" y="0px"
	 viewBox="0 0 512 512" style="enable-background:new 0 0 512 512;" xml:space="preserve">
<path style="fill:#E0315B;" d="M430.298,264.17h-32.681l-21.787,16.34h54.468c13.516,0,24.511,10.996,24.511,24.511V503.83
	c0,4.513,3.658,8.17,8.17,8.17c4.512,0,8.17-3.657,8.17-8.17V305.021C471.149,282.495,452.824,264.17,430.298,264.17z"/>
<path style="fill:#EA5A7D;" d="M114.383,264.17H81.702c-22.526,0-40.851,18.325-40.851,40.851V503.83c0,4.513,3.658,8.17,8.17,8.17
	s8.17-3.657,8.17-8.17V305.021c0-13.515,10.995-24.511,24.511-24.511h54.468L114.383,264.17z"/>
<path style="fill:#E0315B;" d="M321.362,123.915h-16.34V65.362c0-27.03-21.991-49.021-49.021-49.021s-49.021,21.991-49.021,49.021
	v58.553h-16.34V65.362C190.638,29.321,219.96,0,256,0s65.362,29.321,65.362,65.362V123.915z"/>
<path style="fill:#EA5A7D;" d="M332.255,198.809v-92.596h-32.681L280.9,305.021l51.356,198.809h32.681
	c17.974,0,32.681-14.706,32.681-32.681V264.17C361.519,264.17,332.255,234.907,332.255,198.809z"/>
<path style="fill:#F5849F;" d="M364.936,471.149v-179.9c-38.045-13.491-65.362-49.836-65.362-92.44v-92.596h-119.83v92.596
	c0,36.098-29.264,65.362-65.362,65.362v206.979c0,17.974,14.706,32.681,32.681,32.681h185.191
	C350.23,503.83,364.936,489.123,364.936,471.149z"/>
<g>
	<path style="fill:#EA5A7D;" d="M223.319,149.787c0,0,0,3.739,0,21.787S237.95,204.255,256,204.255s32.681-14.632,32.681-32.681
		s0-21.787,0-21.787H223.319z"/>
	<circle style="fill:#EA5A7D;" cx="163.927" cy="437.923" r="8.17"/>
	<circle style="fill:#EA5A7D;" cx="196.608" cy="454.264" r="8.17"/>
</g>
<g>
</g>
<g>
</g>
<g>
</g>
<g>
</g>
<g>
</g>
<g>
</g>
<g>
</g>
<g>
</g>
<g>
</g>
<g>
</g>
<g>
</g>
<g>
</g>
<g>
</g>
<g>
</g>
<g>
</g>
</svg>
