<?xml version="1.0" encoding="iso-8859-1"?>
<!-- Generator: Adobe Illustrator 19.0.0, SVG Export Plug-In . SVG Version: 6.00 Build 0)  -->
<svg version="1.1" id="Capa_1" xmlns="http://www.w3.org/2000/svg" xmlns:xlink="http://www.w3.org/1999/xlink" x="0px" y="0px"
	 viewBox="0 0 512 512" style="enable-background:new 0 0 512 512;" xml:space="preserve">
<path style="fill:#CAB5B1;" d="M182.579,103.04l-31.858-46.056c-5.02-7.253-15.004-9.076-22.26-4.055L88.985,80.235
	c-3.516,2.431-5.873,6.085-6.639,10.29c-0.767,4.205,0.15,8.457,2.582,11.971l31.857,46.055c1.207,1.745,3.058,2.939,5.145,3.319
	c0.477,0.086,0.957,0.129,1.435,0.129c1.615,0,3.205-0.489,4.551-1.421l52.635-36.409c1.745-1.207,2.939-3.058,3.319-5.145
	C184.251,106.938,183.786,104.785,182.579,103.04z"/>
<path style="fill:#BDA39E;" d="M141.833,134.579c-1.346,0.932-2.936,1.421-4.551,1.421c-0.478,0-0.958-0.043-1.435-0.129
	c-2.087-0.38-3.938-1.575-5.145-3.319L98.846,86.496c-2.289-3.307-3.216-7.267-2.68-11.227l-7.18,4.967
	c-3.516,2.431-5.873,6.085-6.639,10.29c-0.767,4.205,0.15,8.457,2.582,11.971l31.857,46.055c1.207,1.745,3.058,2.939,5.145,3.319
	c0.477,0.086,0.957,0.129,1.435,0.129c1.615,0,3.205-0.489,4.551-1.421l52.635-36.409c1.745-1.207,2.939-3.058,3.319-5.145
	c0.21-1.151,0.154-2.32-0.133-3.432L141.833,134.579z"/>
<path style="fill:#CAB5B1;" d="M429.653,90.525c-0.766-4.205-3.123-7.859-6.639-10.29l-39.476-27.307
	c-7.254-5.02-17.239-3.199-22.26,4.056l-31.858,46.055c-1.207,1.745-1.672,3.898-1.291,5.985c0.38,2.087,1.574,3.938,3.319,5.145
	l52.635,36.409c1.347,0.932,2.936,1.421,4.551,1.421c0.478,0,0.958-0.043,1.435-0.129c2.087-0.38,3.938-1.575,5.145-3.319
	l31.857-46.055C429.503,98.982,430.42,94.73,429.653,90.525z"/>
<path style="fill:#BDA39E;" d="M429.653,90.525c-0.766-4.205-3.123-7.859-6.639-10.29l-7.023-4.858
	c-0.008,3.207-0.973,6.334-2.837,9.027l-31.857,46.055c-1.207,1.745-3.058,2.939-5.145,3.319c-0.477,0.086-0.957,0.129-1.435,0.129
	c-1.615,0-3.204-0.489-4.551-1.421l-41.274-28.55c-0.802,1.559-1.081,3.345-0.763,5.089c0.38,2.087,1.574,3.938,3.319,5.145
	l52.635,36.409c1.347,0.932,2.936,1.421,4.551,1.421c0.478,0,0.958-0.043,1.435-0.129c2.087-0.38,3.938-1.575,5.145-3.319
	l31.857-46.055C429.503,98.982,430.42,94.73,429.653,90.525z"/>
<path style="fill:#CAB5B1;" d="M272,32h-32c-4.418,0-8,3.582-8,8v48c0,4.418,3.582,8,8,8h32c4.418,0,8-3.582,8-8V40
	C280,35.582,276.418,32,272,32z"/>
<path style="fill:#956B64;" d="M288,0h-64c-8.822,0-16,7.178-16,16v32c0,4.418,3.582,8,8,8h80c4.418,0,8-3.582,8-8V16
	C304,7.178,296.822,0,288,0z"/>
<path style="fill:#885951;" d="M232,48V16c0-8.822,7.178-16,16-16h-24c-8.822,0-16,7.178-16,16v32c0,4.418,3.582,8,8,8h24
	C235.582,56,232,52.418,232,48z"/>
<path style="fill:#F56C6C;" d="M414.392,129.608C372.084,87.3,315.833,64,256,64S139.916,87.3,97.608,129.608S32,228.167,32,288
	s23.3,116.084,65.608,158.392S196.167,512,256,512s116.084-23.3,158.392-65.608S480,347.833,480,288S456.7,171.916,414.392,129.608z
	"/>
<path style="fill:#DB4D4D;" d="M397.421,146.578C359.646,108.804,309.422,88,256,88s-103.646,20.804-141.421,58.578
	C76.803,184.354,56,234.578,56,288s20.803,103.646,58.579,141.422C152.354,467.196,202.578,488,256,488
	s103.646-20.804,141.421-58.578C435.197,391.646,456,341.422,456,288S435.197,184.354,397.421,146.578z"/>
<path style="fill:#F2EDEC;" d="M256,104c-101.458,0-184,82.542-184,184s82.542,184,184,184s184-82.542,184-184S357.458,104,256,104z
	"/>
<g>
	<path style="fill:#CAB5B1;" d="M281.774,336.735c-2.048,0-4.095-0.781-5.657-2.343l-67.882-67.882
		c-3.124-3.124-3.124-8.189,0-11.313c3.125-3.124,8.189-3.124,11.314,0l67.882,67.882c3.124,3.124,3.124,8.189,0,11.313
		C285.869,335.954,283.822,336.735,281.774,336.735z"/>
	<path style="fill:#CAB5B1;" d="M209.65,200.042L209.65,200.042c-21.412-21.412-50.61-25.759-66.469-9.899
		c-7.95,7.95-11.036,19.527-8.69,32.597c2.155,12.01,8.758,24.039,18.59,33.871c12.736,12.737,28.226,19.435,42.025,19.435
		c9.399,0,18.017-3.109,24.443-9.535C235.409,250.649,231.061,221.453,209.65,200.042z"/>
</g>
<path style="fill:#BDA39E;" d="M205.381,264c-13.8,0-29.289-6.698-42.025-19.435c-9.832-9.832-16.435-21.861-18.59-33.871
	c-1.608-8.959-0.662-17.215,2.651-24.083c-1.494,1.042-2.915,2.21-4.235,3.531c-7.95,7.95-11.036,19.527-8.69,32.597
	c2.155,12.01,8.758,24.039,18.59,33.871c12.736,12.737,28.226,19.435,42.025,19.435c9.399,0,18.017-3.109,24.443-9.535
	c2.527-2.527,4.536-5.396,6.049-8.514C219.824,262.028,212.852,264,205.381,264z"/>
<path style="fill:#FBDC40;" d="M360.971,373.99l-62.226-62.226c-3.081-3.08-8.233-3.08-11.314,0l-22.627,22.627
	c-3.124,3.124-3.124,8.189,0,11.313l62.226,62.226c9.251,9.251,24.69,9.251,33.941,0c4.533-4.533,7.029-10.56,7.029-16.97
	C368,384.549,365.504,378.522,360.971,373.99z"/>
<path style="fill:#FAD000;" d="M352,401.539c-6.41,0-12.438-2.496-16.971-7.029l-62.226-62.226
	c-1.081-1.081-1.779-2.396-2.112-3.781l-5.888,5.889c-3.124,3.124-3.124,8.189,0,11.313l62.226,62.226
	c9.251,9.251,24.69,9.251,33.941,0c3.356-3.356,5.592-7.531,6.529-12.074C363.171,399.531,357.742,401.539,352,401.539z"/>
<path style="fill:#BDA39E;" d="M396.618,215.598c-3.125-3.124-8.189-3.124-11.314,0l-45.255,45.255l-11.314-11.314l45.255-45.255
	c3.124-3.124,3.124-8.189,0-11.313c-3.125-3.124-8.189-3.124-11.314,0l-45.255,45.255l-11.313-11.313l0,0l45.255-45.255
	c3.124-3.124,3.124-8.189,0-11.313c-3.125-3.124-8.189-3.124-11.314,0L294.794,215.6c-0.003,0.003-0.006,0.007-0.01,0.01
	c-6.038,6.043-9.363,14.074-9.363,22.616c0,8.548,3.328,16.583,9.372,22.627l-62.226,62.226c-3.124,3.124-3.124,8.189,0,11.313
	c1.563,1.562,3.609,2.343,5.657,2.343s4.095-0.781,5.657-2.343l62.225-62.225c6.044,6.044,14.08,9.372,22.628,9.372
	c8.543,0,16.576-3.326,22.619-9.364c0.003-0.003,0.006-0.005,0.009-0.008l45.255-45.255
	C399.742,223.788,399.742,218.722,396.618,215.598z"/>
<path style="fill:#FBDC40;" d="M255.196,334.392l-22.627-22.627c-3.081-3.08-8.233-3.08-11.314,0L159.03,373.99
	c-9.253,9.25-9.252,24.691-0.001,33.941c9.238,9.238,24.704,9.238,33.941,0l62.226-62.226
	C258.32,342.582,258.32,337.516,255.196,334.392z"/>
<path style="fill:#FAD000;" d="M255.196,334.392l-5.888-5.889c-0.333,1.385-1.031,2.7-2.112,3.781L184.97,394.51
	c-8.712,8.712-23.079,9.296-32.475,1.325c0.934,4.552,3.172,8.735,6.534,12.096c9.238,9.238,24.704,9.238,33.941,0l62.226-62.226
	C258.32,342.582,258.32,337.516,255.196,334.392z"/>
<g>
</g>
<g>
</g>
<g>
</g>
<g>
</g>
<g>
</g>
<g>
</g>
<g>
</g>
<g>
</g>
<g>
</g>
<g>
</g>
<g>
</g>
<g>
</g>
<g>
</g>
<g>
</g>
<g>
</g>
</svg>
