<svg height="512pt" viewBox="-87 0 512 512" width="512pt" xmlns="http://www.w3.org/2000/svg"><path d="m168.90625 0c-48.808594 0-88.367188 39.566406-88.367188 88.371094v124.640625c0 6.472656 5.246094 11.714843 11.714844 11.714843h153.308594c6.46875 0 11.714844-5.242187 11.714844-11.714843 0-5.460938 0-120.402344 0-124.640625 0-48.804688-39.5625-88.371094-88.371094-88.371094zm0 0" fill="#707487"/><path d="m111.4375 213.011719c0-1.296875 0-123.34375 0-124.640625 0-43.53125 31.484375-79.6875 72.917969-86.996094-5.019531-.886719-10.175781-1.375-15.449219-1.375-48.808594 0-88.367188 39.566406-88.367188 88.371094v124.640625c0 6.472656 5.246094 11.714843 11.714844 11.714843h30.902344c-6.472656 0-11.71875-5.242187-11.71875-11.714843zm0 0" fill="#52586d"/><path d="m302.253906 281.519531-78.519531-30.410156-10.117187 10.753906c-24.984376 26.546875-65.867188 26.546875-90.851563 0l-9.703125-10.308593-77.289062 29.964843s-35.773438 14.707031-35.773438 55.488281v164.011719c0 6.011719 4.875 10.882813 10.886719 10.882813h316.257812c6.011719 0 10.886719-4.871094 10.886719-10.882813v-164.007812c0-40.785157-35.777344-55.492188-35.777344-55.492188zm0 0" fill="#e4eaf8"/><path d="m30.445312 501.019531v-186.300781c0-15.328125 5.054688-26.972656 11.363282-35.539062l-6.03125 2.339843s-35.777344 14.707031-35.777344 55.492188v164.007812c0 6.011719 4.875 10.886719 10.886719 10.886719h30.441406c-6.011719 0-10.882813-4.875-10.882813-10.886719zm0 0" fill="#d8dce5"/><path d="m120.335938 262.429688c26.296874 27.941406 69.328124 27.941406 95.625-.003907l9.882812-10.5-14.75-5.710937c-3.355469-1.300782-5.566406-4.527344-5.566406-8.121094v-28.0625c-10.15625 7.015625-22.457032 11.140625-35.707032 11.140625-14.523437 0-27.210937-4.171875-37.417968-11.097656v27.707031c0 3.785156-2.328125 7.179688-5.855469 8.546875l-15.652344 6.070313zm0 0" fill="#f0a479"/><path d="m163.261719 220.871094c-11.800781-1.058594-22.21875-4.933594-30.859375-10.796875v27.707031c0 3.785156-2.328125 7.179688-5.855469 8.546875l-15.652344 6.070313 9.4375 10.03125c11.914063 12.65625 27.261719 19.558593 42.929688 20.75zm0 0" fill="#e5966e"/><path d="m231.769531 114.5625v46.722656c0 .558594-.027343 1.109375-.042969 1.664063 16.886719 3.0625 30.910157-8.929688 30.910157-24.191407-.003907-15.246093-14-27.226562-30.867188-24.195312zm0 0" fill="#f0a479"/><path d="m257.320312 123.609375c-5.582031-6.96875-15.003906-10.941406-25.550781-9.046875v46.722656c0 .558594-.027343 1.109375-.042969 1.664063 10.5625 1.917969 20.003907-2.058594 25.59375-9.039063zm0 0" fill="#e5966e"/><path d="m228.65625 102.570312c-7.839844-2.382812-23.203125-8.660156-38.007812-23.925781-2.414063-2.492187-6.367188-2.304687-8.582032.214844-10.367187 11.828125-38.265625 40.734375-73.230468 53.640625-2.292969.847656-3.816407 3.035156-3.816407 5.476562v23.308594c0 32.902344 25.777344 62.976563 64.800781 62.976563 34.726563 0 62.980469-28.25 62.980469-62.976563v-53.128906c-.003906-2.570312-1.683593-4.839844-4.144531-5.585938zm0 0" fill="#f7b594"/><path d="m135.921875 161.285156v-42.421875c-8.347656 5.300781-17.445313 10.078125-27.085937 13.636719-2.292969.847656-3.816407 3.03125-3.816407 5.476562v23.304688c0 32.90625 25.777344 62.980469 64.800781 62.980469 5.144532 0 10.140626-.632813 14.933594-1.804688-29.925781-6.921875-48.832031-33-48.832031-61.171875zm0 0" fill="#f0a479"/><path d="m286.355469 512v-59.960938c0-4.265624-3.460938-7.726562-7.726563-7.726562-4.269531 0-7.726562 3.460938-7.726562 7.726562v59.960938zm0 0" fill="#d8dce5"/><path d="m68.792969 512v-59.960938c0-4.265624-3.457031-7.726562-7.726563-7.726562-4.265625 0-7.726562 3.460938-7.726562 7.726562v59.960938zm0 0" fill="#d8dce5"/><path d="m155.507812 452.039062h28.675782v59.867188h-28.675782zm0 0" fill="#9e6b57"/><path d="m155.507812 452.039062h19.195313v59.867188h-19.195313zm0 0" fill="#875848"/><path d="m279.046875 303.199219h-220.0625c-9.550781 0-17.289063 7.742187-17.289063 17.292969v121.046874c0 9.550782 7.738282 17.292969 17.289063 17.292969h220.0625c9.550781 0 17.289063-7.742187 17.289063-17.292969v-121.046874c.003906-9.550782-7.738282-17.292969-17.289063-17.292969zm0 0" fill="#00aaf0"/><path d="m72.601562 441.539062v-121.046874c0-9.550782 7.742188-17.292969 17.289063-17.292969h-30.90625c-9.550781 0-17.289063 7.742187-17.289063 17.292969v121.046874c0 9.550782 7.738282 17.292969 17.289063 17.292969h30.90625c-9.546875 0-17.289063-7.742187-17.289063-17.292969zm0 0" fill="#059adb"/><path d="m211.660156 374.628906c2.871094-2.800781 1.285156-7.675781-2.683594-8.253906l-22.09375-3.210938c-1.578124-.226562-2.941406-1.21875-3.644531-2.644531l-9.882812-20.023437c-1.773438-3.597656-6.902344-3.597656-8.679688 0l-9.882812 20.023437c-.703125 1.425781-2.066407 2.417969-3.644531 2.644531l-22.09375 3.210938c-3.96875.578125-5.554688 5.457031-2.683594 8.253906l15.988281 15.585938c1.144531 1.113281 1.664063 2.714844 1.394531 4.285156l-3.777344 22.003906c-.675781 3.953125 3.472657 6.96875 7.023438 5.101563l19.761719-10.386719c1.410156-.742188 3.09375-.742188 4.503906 0l19.765625 10.386719c3.550781 1.867187 7.699219-1.148438 7.023438-5.101563l-3.777344-22.003906c-.269532-1.570312.253906-3.171875 1.394531-4.285156zm0 0" fill="#e4eaf8"/><path d="m171.988281 411.59375 2.929688-17.09375c.269531-1.570312-.25-3.171875-1.390625-4.285156l-15.988282-15.585938c-2.875-2.800781-1.289062-7.675781 2.679688-8.253906l22.097656-3.210938c.847656-.121093 1.625-.472656 2.28125-.984374-.5625-.441407-1.035156-1-1.359375-1.660157l-9.882812-20.023437c-1.773438-3.597656-6.902344-3.597656-8.679688 0l-9.882812 20.023437c-.703125 1.425781-2.066407 2.417969-3.644531 2.644531l-22.09375 3.210938c-3.96875.578125-5.554688 5.457031-2.683594 8.253906l15.988281 15.585938c1.144531 1.113281 1.664063 2.714844 1.394531 4.285156l-3.773437 22.003906c-.679688 3.953125 3.46875 6.96875 7.019531 5.101563l19.765625-10.386719c1.410156-.742188 3.09375-.742188 4.503906 0zm0 0" fill="#d8dce5"/></svg>